<?xml version="1.0" standalone="no"?>
<!DOCTYPE svg PUBLIC "-//W3C//DTD SVG 20010904//EN"
 "http://www.w3.org/TR/2001/REC-SVG-20010904/DTD/svg10.dtd">
<svg version="1.0" xmlns="http://www.w3.org/2000/svg"
 width="128.000000pt" height="128.000000pt" viewBox="0 0 128.000000 128.000000"
 preserveAspectRatio="xMidYMid meet">

<g transform="translate(0.000000,128.000000) scale(0.100000,-0.100000)"
fill="#000000" stroke="none">
<path d="M550 991 c-58 -19 -110 -53 -154 -102 -110 -122 -110 -300 0 -429 54
-63 64 -86 73 -160 l6 -55 165 0 165 0 3 25 c8 87 24 129 69 181 69 81 88 129
88 224 0 96 -24 158 -88 223 -65 68 -127 95 -222 98 -44 2 -91 0 -105 -5z
m206 -51 c169 -73 225 -291 112 -439 -70 -91 -78 -105 -89 -162 l-12 -59 -128
0 c-118 0 -129 2 -129 18 0 47 -34 124 -75 173 -61 72 -88 146 -82 224 15 201
218 325 403 245z"/>
<path d="M625 910 c-10 -17 5 -30 33 -30 81 -1 173 -84 192 -174 14 -68 40
-79 40 -16 0 55 -34 124 -82 165 -59 50 -166 82 -183 55z"/>
<path d="M477 202 c-21 -23 -22 -46 -1 -66 23 -23 305 -23 328 0 21 21 20 47
-2 67 -16 14 -43 17 -164 17 -128 0 -147 -2 -161 -18z m303 -32 c0 -6 -53 -10
-140 -10 -87 0 -140 4 -140 10 0 6 53 10 140 10 87 0 140 -4 140 -10z"/>
<path d="M516 84 c-9 -8 -16 -24 -16 -34 0 -41 25 -50 140 -50 85 0 112 3 124
16 20 20 20 48 0 68 -23 23 -225 23 -248 0z m224 -34 c0 -6 -40 -10 -100 -10
-60 0 -100 4 -100 10 0 6 40 10 100 10 60 0 100 -4 100 -10z"/>
</g>
</svg>
