<?xml version="1.0" standalone="no"?>
<!DOCTYPE svg PUBLIC "-//W3C//DTD SVG 20010904//EN"
 "http://www.w3.org/TR/2001/REC-SVG-20010904/DTD/svg10.dtd">
<svg version="1.0" xmlns="http://www.w3.org/2000/svg"
 width="128.000000pt" height="128.000000pt" viewBox="0 0 128.000000 128.000000"
 preserveAspectRatio="xMidYMid meet">

<g transform="translate(0.000000,128.000000) scale(0.100000,-0.100000)"
fill="#000000" stroke="none">
<path d="M625 1267 c-3 -7 -5 -47 -3 -88 2 -58 6 -74 18 -74 12 0 15 16 15 84
0 59 -4 86 -12 88 -7 3 -15 -2 -18 -10z"/>
<path d="M314 1177 c-3 -10 10 -41 32 -77 42 -68 51 -77 66 -62 12 12 -40 108
-74 139 -16 14 -18 14 -24 0z"/>
<path d="M910 1115 c-38 -58 -44 -85 -20 -85 13 0 90 116 90 134 0 34 -30 13
-70 -49z"/>
<path d="M527 985 c-80 -30 -151 -98 -189 -182 -17 -36 -22 -67 -22 -128 0
-95 19 -144 86 -223 46 -53 68 -109 68 -170 0 -18 6 -32 16 -36 20 -8 288 -8
308 0 10 4 16 18 16 36 0 61 22 117 67 170 67 78 86 127 87 223 1 68 -3 88
-27 137 -35 71 -119 150 -183 172 -58 20 -175 20 -227 1z m244 -58 c181 -93
208 -333 54 -477 -25 -24 -55 -103 -55 -147 0 -23 -1 -23 -130 -23 -130 0
-130 0 -130 23 0 50 -29 118 -70 164 -62 70 -84 124 -84 208 1 118 53 203 156
254 88 44 171 44 259 -2z"/>
<path d="M626 911 c-10 -15 2 -31 23 -31 35 0 106 -31 134 -58 34 -32 67 -92
67 -122 0 -12 5 -30 11 -41 8 -16 13 -18 25 -8 18 14 18 23 -1 85 -18 60 -73
127 -126 155 -48 24 -124 36 -133 20z"/>
<path d="M110 956 c0 -18 128 -89 146 -82 26 10 14 25 -49 61 -68 37 -97 44
-97 21z"/>
<path d="M1073 934 c-64 -36 -75 -50 -49 -60 19 -7 146 64 146 82 0 23 -31 16
-97 -22z"/>
<path d="M482 204 c-26 -18 -28 -46 -6 -68 23 -23 305 -23 328 0 22 22 20 50
-6 68 -32 23 -284 23 -316 0z m293 -34 c4 -6 -43 -10 -135 -10 -92 0 -139 4
-135 10 8 13 262 13 270 0z"/>
<path d="M517 82 c-21 -23 -22 -46 -1 -66 23 -23 225 -23 248 0 21 21 20 47
-2 67 -28 26 -222 25 -245 -1z m223 -32 c0 -6 -40 -10 -100 -10 -60 0 -100 4
-100 10 0 6 40 10 100 10 60 0 100 -4 100 -10z"/>
</g>
</svg>
