<?xml version="1.0" standalone="no"?>
<!DOCTYPE svg PUBLIC "-//W3C//DTD SVG 20010904//EN"
 "http://www.w3.org/TR/2001/REC-SVG-20010904/DTD/svg10.dtd">
<svg version="1.0" xmlns="http://www.w3.org/2000/svg"
 width="218.000000pt" height="166.000000pt" viewBox="0 0 218.000000 166.000000"
 preserveAspectRatio="xMidYMid meet" >

<g transform="translate(0.000000,166.000000) scale(0.100000,-0.100000)"
fill="currentcolor" stroke="none">
<path d="M745 1623 c-29 -7 -583 -379 -628 -422 -21 -20 -52 -65 -70 -101
l-32 -64 -3 -189 c-4 -218 5 -261 68 -350 36 -50 75 -80 312 -239 294 -198
346 -228 396 -228 40 0 99 24 131 53 47 43 61 92 61 217 0 176 3 172 -260 352
-118 81 -223 150 -232 153 -10 4 -18 12 -18 18 0 7 87 70 193 140 338 225 326
211 327 392 0 132 -10 171 -52 212 -55 53 -123 72 -193 56z"/>
<path d="M1305 1612 c-47 -23 -89 -65 -104 -105 -6 -16 -11 -81 -11 -145 0
-134 15 -180 70 -222 18 -14 122 -86 232 -160 109 -74 200 -139 201 -145 1 -5
-90 -72 -203 -147 -113 -76 -220 -150 -239 -164 -56 -44 -71 -92 -71 -226 0
-127 7 -158 48 -202 55 -59 139 -80 206 -52 29 12 483 310 496 325 3 3 18 13
34 21 52 26 134 115 163 176 28 59 28 60 28 269 l0 210 -28 57 c-16 32 -48 77
-71 100 -24 24 -170 128 -325 231 -259 174 -286 189 -334 193 -38 4 -63 0 -92
-14z"/>
</g>
</svg>
